<svg width="36" height="36" viewBox="0 0 36 36" fill="none" xmlns="http://www.w3.org/2000/svg">
<g clip-path="url(#clip0_478_2540)">
<path d="M14.5552 30.8882C14.4842 31.1762 14.4487 31.4282 14.4487 31.7522C14.4487 33.5882 15.9397 35.1002 17.7502 35.1002C19.5607 35.1002 21.0516 33.5882 21.0516 31.7522C21.0516 31.4642 21.0161 31.1762 20.9452 30.8882H14.5552Z" fill="black"/>
<path d="M31.1692 27.1801C31.1337 26.8921 31.0272 26.6401 30.8497 26.4241C30.8142 26.3881 27.9743 23.2561 27.9743 14.9761C27.9743 8.53208 23.7143 5.83208 20.1998 5.00408V3.13208C20.1998 1.80008 19.0994 0.684082 17.7859 0.684082C16.4724 0.684082 15.3364 1.80008 15.3364 3.13208V5.04008C11.822 5.86808 7.562 8.53208 7.562 15.0121C7.562 23.2921 4.72204 26.4241 4.68654 26.4241C4.47354 26.6401 4.36704 26.8921 4.33154 27.1801V29.4481H31.1692V27.1801Z" fill="black"/>
<ellipse cx="29.0898" cy="6.5" rx="6.40964" ry="6.5" fill="#FF0000"/>
</g>
<defs>
<clipPath id="clip0_478_2540">
<rect width="35.4996" height="36" fill="white"/>
</clipPath>
</defs>
</svg>
