<svg width="46" height="46" viewBox="0 0 46 46" fill="none" xmlns="http://www.w3.org/2000/svg">
<path d="M22.8367 6.07227C19.521 6.07227 16.2798 7.05548 13.5229 8.89758C10.766 10.7397 8.61725 13.3579 7.34839 16.4212C6.07953 19.4845 5.74754 22.8553 6.3944 26.1073C7.04126 29.3593 8.63792 32.3464 10.9825 34.691C13.327 37.0355 16.3142 38.6322 19.5661 39.279C22.8181 39.9259 26.1889 39.5939 29.2522 38.325C32.3155 37.0562 34.9337 34.9074 36.7758 32.1505C38.6179 29.3936 39.6012 26.1524 39.6012 22.8367C39.5947 18.3925 37.8263 14.1322 34.6838 10.9896C31.5413 7.84709 27.2809 6.07876 22.8367 6.07227ZM24.0634 22.8367C24.0622 23.0113 24.0245 23.1837 23.9526 23.3429C23.8808 23.502 23.7765 23.6444 23.6463 23.7608L17.1041 29.4852C16.9827 29.5926 16.8414 29.6751 16.6882 29.7278C16.535 29.7806 16.3729 29.8027 16.2111 29.7928C16.0494 29.783 15.8912 29.7413 15.7455 29.6703C15.5999 29.5993 15.4696 29.5003 15.3622 29.3789C15.2548 29.2576 15.1724 29.1163 15.1196 28.963C15.0668 28.8098 15.0448 28.6477 15.0546 28.486C15.0645 28.3242 15.1061 28.166 15.1772 28.0204C15.2482 27.8747 15.3472 27.7445 15.4685 27.6371L21.6101 22.2806V12.2056C21.6101 11.8803 21.7393 11.5683 21.9693 11.3382C22.1994 11.1082 22.5114 10.9789 22.8367 10.9789C23.1621 10.9789 23.4741 11.1082 23.7041 11.3382C23.9341 11.5683 24.0634 11.8803 24.0634 12.2056V22.8367Z" fill="#FFAE1B"/>
</svg>
