<svg width="46" height="46" viewBox="0 0 46 46" fill="none" xmlns="http://www.w3.org/2000/svg">
<path d="M22.9999 6.8999C14.1087 6.8999 6.8999 14.1087 6.8999 22.9999C6.8999 31.8911 14.1087 39.0999 22.9999 39.0999C31.8911 39.0999 39.0999 31.8911 39.0999 22.9999C39.0999 14.1087 31.8911 6.8999 22.9999 6.8999ZM10.9249 22.9999C10.9249 20.3937 11.7581 17.9848 13.1658 16.0115L29.9893 32.835C28.011 34.2417 25.6061 35.0749 22.9999 35.0749C16.3295 35.0749 10.9249 29.6703 10.9249 22.9999ZM32.834 29.9923L16.0115 13.1658C17.9848 11.7621 20.3937 10.9249 22.9999 10.9249C29.6663 10.9249 35.0749 16.3335 35.0749 22.9999C35.0749 25.6101 34.2377 28.0151 32.834 29.9923Z" fill="#828282"/>
</svg>
