<svg width="46" height="46" viewBox="0 0 46 46" fill="none" xmlns="http://www.w3.org/2000/svg">
<path d="M34.8388 11.4877C28.3903 5.03925 17.9362 5.03925 11.4877 11.4877C5.03925 17.9362 5.03925 28.3903 11.4877 34.8388C17.9362 41.2872 28.3903 41.2872 34.8388 34.8388C41.2872 28.3903 41.2872 17.9362 34.8388 11.4877ZM31.2544 20.1601C30.8879 20.5266 30.5173 20.8972 30.1509 21.2637C28.5419 22.8726 26.9371 24.4774 25.3282 26.0863C24.3173 27.093 23.3107 28.1039 22.304 29.1105C21.6596 29.7549 20.5645 29.7549 19.92 29.1105C19.7221 28.9125 19.5241 28.7146 19.3304 28.5166C17.9362 27.1183 16.5421 25.7241 15.1479 24.3257C14.4824 23.6602 14.5288 22.6157 15.1479 21.9418C15.7629 21.2721 16.9085 21.3184 17.5319 21.9418C17.7298 22.1397 17.9278 22.3377 18.1215 22.5357C19.1198 23.5339 20.118 24.5363 21.112 25.5346C22.6915 23.9551 24.2668 22.3798 25.8463 20.8003L28.8704 17.7762C29.5359 17.1107 30.5805 17.157 31.2544 17.7762C31.9241 18.3953 31.8778 19.5368 31.2544 20.1601Z" fill="#259F46"/>
</svg>
